<svg width="102" height="102" viewBox="0 0 102 102" fill="none" xmlns="http://www.w3.org/2000/svg">
<path d="M1.1479 94.7362V29.0755C1.59159 29.3083 7.95114 35.2642 13.867 35.868C13.7684 53.0253 13.5416 87.3399 13.4233 87.3399C7.21165 87.7927 2.97195 92.1701 1.1479 94.7362Z" fill="url(#paint0_linear_13_13)"/>
<path d="M13.867 33.151C4.87489 32.185 1.54229 24.3963 1 20.6227C8.34553 20.7233 23.1253 20.9246 23.4803 20.9246C49.6284 22.3736 56.757 43.063 57.0528 53.2266C58.236 69.8304 56.4612 75.7172 49.8059 86.5852C44.5605 95.1508 33.1921 99.7676 27.7693 100.774H1.59159C2.03528 97.3022 5.49606 90.2078 15.7897 89.6041C31.023 88.8493 35.9036 85.0757 39.3052 80.8493C42.7068 76.6229 46.4042 59.5662 42.1152 46.736C37.8262 33.9058 26.4382 33.6039 26.4382 33.4529C25.9649 33.5737 17.8602 33.302 13.867 33.151Z" fill="url(#paint1_linear_13_13)"/>
<path d="M57.4965 80.8493C55.6724 83.6669 51.7285 89.6041 50.5453 90.8116C50.5453 91.2644 59.567 100.321 64.8913 100.623C64.8913 100.925 82.098 102.243 88.5548 97.1513C95.0622 92.0192 101.422 84.7739 100.978 76.0191C101.077 71.0883 99.7949 61.3775 93.5832 58.3587C90.9704 56.2455 84.2658 52.6228 79.9768 52.6228C76.2793 51.5662 67.938 50.0869 64.7434 47.1888C58.7392 42.1072 62.4793 30.0699 77.0262 32.1784C77.1705 32.1993 77.316 32.2216 77.4625 32.2454C77.2415 32.2216 77.0992 32.198 77.0262 32.1784C76.2192 31.9614 83.8604 32.2233 87.2237 37.9812L98.168 29.9812C89.097 21.6793 70.8072 11.1132 51.2848 31.0378C51.6518 31.6516 52.0472 32.3063 52.4606 33.0001C56.046 39.0179 60.9848 47.9844 60.4544 58.8115C62.1306 60.17 65.9266 62.8568 67.7013 62.7361C69.9198 62.5851 85.0052 65.9059 86.4842 71.1889C88.5548 78.5852 87.5195 92.1701 67.9971 88.8494C66.2224 88.2959 62.525 86.9173 61.9334 85.8305C60.553 84.3713 57.7331 81.3323 57.4965 80.8493Z" fill="url(#paint2_linear_13_13)"/>
<path d="M49.8059 27.868L46.9958 24.0944H52.3201L49.8059 27.868Z" fill="url(#paint3_linear_13_13)"/>
<path d="M33.0936 18.8114L31.7625 12.6227H37.6783C38.0333 12.2604 40.6856 12.9749 41.9673 13.3774C42.1645 12.2705 42.5885 9.75475 42.7068 8.5472C42.8251 7.33964 46.0098 3.11321 47.5874 1.15094L49.3622 3.56605L51.1369 1C51.2848 1.05031 51.906 1.48302 53.2075 2.81133C54.509 4.13963 56.7077 8.8994 57.6444 11.1132C57.5991 11.8531 57.5121 13.2474 57.4983 13.3746C58.1067 12.4705 67.1099 11.8686 67.2577 12.4717C67.376 12.9548 66.4196 16.7988 65.9266 18.6604L61.9334 18.8114L54.2428 22.434L57.4965 17.3019V15.4906L53.3554 18.5095C53.3554 16.8994 53.3258 13.3472 53.2075 12.0189C53.0892 10.6906 50.7918 6.93713 49.658 5.22643C49.303 5.22643 47.0451 9.75475 45.9605 12.0189L45.8127 18.2076L42.8547 15.9434L41.9673 15.6416L42.1152 17.7548L45.0732 22.2831L37.6783 18.9623L33.0936 18.8114Z" fill="url(#paint4_linear_13_13)"/>
<path d="M1.1479 29.0755V94.7362C2.97195 92.1701 7.21165 87.7927 13.4233 87.3399C13.5416 87.3399 13.7684 53.0253 13.867 35.868C7.95114 35.2642 1.59159 29.3083 1.1479 29.0755ZM1.1479 29.0755C1.13504 29.043 1.28274 29.0889 1.29579 29.0755M1 20.6227C1.54229 24.3963 4.87489 32.185 13.867 33.151C17.8602 33.302 25.9649 33.5737 26.4382 33.4529C26.4382 33.6039 37.8262 33.9058 42.1152 46.736C46.4042 59.5662 42.7068 76.6229 39.3052 80.8493C35.9036 85.0757 31.023 88.8493 15.7897 89.6041C5.49606 90.2078 2.03528 97.3022 1.59159 100.774H27.7693C33.1921 99.7676 44.5605 95.1508 49.8059 86.5852C56.4612 75.7172 58.236 69.8304 57.0528 53.2266C56.757 43.063 49.6284 22.3736 23.4803 20.9246C23.1253 20.9246 8.34553 20.7233 1 20.6227ZM57.4965 80.8493C55.6724 83.6669 51.7285 89.6041 50.5453 90.8116C50.5453 91.2644 59.567 100.321 64.8913 100.623C64.8913 100.925 82.098 102.243 88.5548 97.1513C95.0622 92.0192 101.422 84.7739 100.978 76.0191C101.077 71.0883 99.7949 61.3775 93.5832 58.3587C90.9704 56.2455 84.2658 52.6228 79.9768 52.6228C76.2793 51.5662 67.938 50.0869 64.7434 47.1888C58.6797 42.0567 62.5545 29.8303 77.4625 32.2454C74.8004 31.959 83.5559 31.702 87.2237 37.9812L98.168 29.9812C89.097 21.6793 70.8072 11.1132 51.2848 31.0378C51.6518 31.6516 52.0472 32.3063 52.4606 33.0001C56.046 39.0179 60.9848 47.9844 60.4544 58.8115C62.1306 60.17 65.9266 62.8568 67.7013 62.7361C69.9198 62.5851 85.0052 65.9059 86.4842 71.1889C88.5548 78.5852 87.5195 92.1701 67.9971 88.8494C66.2224 88.2959 62.525 86.9173 61.9334 85.8305C60.553 84.3713 57.7331 81.3323 57.4965 80.8493ZM46.9958 24.0944L49.8059 27.868L52.3201 24.0944H46.9958ZM31.7625 12.6227L33.0935 18.8114L37.6783 18.9623L45.0732 22.2831L42.1152 17.7548L41.9673 15.6416L42.8547 15.9434L45.8127 18.2076L45.9605 12.0189C47.0451 9.75475 49.303 5.22643 49.658 5.22643C50.7918 6.93713 53.0892 10.6906 53.2075 12.0189C53.3258 13.3472 53.3554 16.8994 53.3554 18.5095L57.4965 15.4906V17.3019L54.2428 22.434L61.9334 18.8114L65.9266 18.6604C66.4196 16.7988 67.376 12.9548 67.2577 12.4717C67.1098 11.868 58.0881 12.4717 57.4965 13.3774C57.4965 13.4982 57.5951 11.9183 57.6444 11.1132C56.7077 8.8994 54.509 4.13963 53.2075 2.81133C51.906 1.48302 51.2848 1.05031 51.1369 1L49.3622 3.56605L47.5874 1.15094C46.0098 3.11321 42.8251 7.33964 42.7068 8.5472C42.5885 9.75475 42.1645 12.2705 41.9673 13.3774C40.6856 12.9749 38.0333 12.2604 37.6783 12.6227H31.7625Z" stroke="white"/>
<defs>
<linearGradient id="paint0_linear_13_13" x1="51" y1="1" x2="51" y2="101" gradientUnits="userSpaceOnUse">
<stop stop-color="#FBFBFB"/>
<stop offset="1" stop-color="#3A9CAC"/>
</linearGradient>
<linearGradient id="paint1_linear_13_13" x1="51" y1="1" x2="51" y2="101" gradientUnits="userSpaceOnUse">
<stop stop-color="#FBFBFB"/>
<stop offset="1" stop-color="#3A9CAC"/>
</linearGradient>
<linearGradient id="paint2_linear_13_13" x1="51" y1="1" x2="51" y2="101" gradientUnits="userSpaceOnUse">
<stop stop-color="#FBFBFB"/>
<stop offset="1" stop-color="#3A9CAC"/>
</linearGradient>
<linearGradient id="paint3_linear_13_13" x1="51" y1="1" x2="51" y2="101" gradientUnits="userSpaceOnUse">
<stop stop-color="#FBFBFB"/>
<stop offset="1" stop-color="#3A9CAC"/>
</linearGradient>
<linearGradient id="paint4_linear_13_13" x1="51" y1="1" x2="51" y2="101" gradientUnits="userSpaceOnUse">
<stop stop-color="#FBFBFB"/>
<stop offset="1" stop-color="#3A9CAC"/>
</linearGradient>
</defs>
</svg>
